<svg width="810" height="303" viewBox="0 0 810 303" fill="none" xmlns="http://www.w3.org/2000/svg">
<path d="M254.294 177.915V230.746H209.372V299.115H150.01V230.746H0V179.469L131.559 3.88462H209.372V177.915H254.294ZM64.1752 177.915H150.01V63.7077L64.1752 177.915Z" fill="#C0080E"/>
<path d="M402.995 303C325.984 303 277.051 244.731 277.051 151.5C277.051 58.2692 325.984 0 402.995 0C480.005 0 528.938 58.2692 528.938 151.5C528.938 244.731 480.005 303 402.995 303ZM402.995 251.723C441.5 251.723 463.961 215.208 463.961 151.5C463.961 87.7923 441.5 51.2769 402.995 51.2769C364.489 51.2769 342.028 87.7923 342.028 151.5C342.028 215.208 364.489 251.723 402.995 251.723Z" fill="#C0080E"/>
<path d="M810 177.915V230.746H765.077V299.115H705.715V230.746H555.706V179.469L687.265 3.88462H765.077V177.915H810ZM619.881 177.915H705.715V63.7077L619.881 177.915Z" fill="#C0080E"/>
</svg>
