<svg width="295" height="48" viewBox="0 0 295 48" fill="none" xmlns="http://www.w3.org/2000/svg">
<path d="M149.053 31.2361H132.324V8.41179L122.599 8.41179L135.974 0.258104L149.349 8.36211L149.053 31.2361Z" fill="#C0080E"/>
<path d="M144.199 23.3874V13.0337H147.147V27.8542H143.988L137.797 17.3357V27.8542H134.849V13.0337H138.155L144.199 23.3874Z" fill="white"/>
<path d="M114.701 9.50024H131.431V32.1244L141.451 32.1244L128.076 40.2322L114.701 32.1244L114.701 9.50024Z" fill="#1C1C1E"/>
<path fill-rule="evenodd" clip-rule="evenodd" d="M121.666 27.8971H125.093V13.0767H121.666V27.8971Z" fill="white"/>
<path d="M12.9217 12.5782V32.1072H7.20619V12.5782H0V8.35571H20.0903V12.5782H12.9217Z" fill="#1C1C1E"/>
<path fill-rule="evenodd" clip-rule="evenodd" d="M41.4983 10.6319C40.7838 9.90616 39.919 9.34536 38.9037 8.98249C37.8885 8.61962 36.422 8.3887 34.5419 8.35571H22.1842V32.1072H27.7117V22.8045H32.6242C34.2786 22.8045 35.4443 23.0684 36.0459 23.5633C36.6476 24.0581 36.9484 25.0807 36.986 26.5982L37.0236 28.7754C37.0236 29.4682 36.986 32.1072 36.986 32.1072H42.8143V30.1609C42.7015 29.765 42.6639 29.0393 42.6639 27.9507V26.3673C42.6639 24.6849 42.4007 23.4643 41.8743 22.6396C41.3479 21.8149 40.483 21.1881 39.2421 20.7593C40.7086 20.3304 41.7991 19.5387 42.4383 18.4501C43.0776 17.3615 43.416 16.2729 43.416 15.1183C43.416 14.1946 43.2656 13.3699 42.8895 12.6442C42.5511 11.9184 42.0999 11.2257 41.4983 10.6319ZM36.0459 18.4831C35.4067 18.747 34.4667 18.8789 33.1882 18.8789H27.7117V12.4792H33.3386C34.5795 12.4792 35.4819 12.6442 36.1212 12.9081C37.174 13.4029 37.738 14.3596 37.738 15.811C37.738 17.1306 37.174 18.0213 36.0459 18.4831Z" fill="#1C1C1E"/>
<path d="M67.1599 32.1072H61.4851L59.8836 27.225H50.6227L48.9168 32.1072H43.416L52.3635 8.35571H58.2821L67.1599 32.1072ZM55.288 13.7988L52.0501 23.1344H58.4213L55.288 13.7988Z" fill="#1C1C1E"/>
<path d="M98.8127 17.6254H110.963V21.7489H98.8127V27.8517H112.669V32.1072H93.6949V8.35571H112.043V12.5782H98.8127V17.6254Z" fill="#1C1C1E"/>
<path d="M83.6925 8.88352C85.4614 9.44432 86.9118 10.434 88.0085 11.8854C88.8929 13.073 89.4943 14.3596 89.8127 15.7121C90.1664 17.0976 90.3079 18.4171 90.3079 19.6707C90.3079 22.8045 89.6358 25.4766 88.2561 27.6868C86.4165 30.6227 83.5864 32.1072 79.7304 32.1072H68.7637V8.35571H79.7304C81.3223 8.3887 82.6312 8.55364 83.6925 8.88352ZM78.846 27.9837C81.3577 27.9837 83.0911 26.8291 84.0817 24.5199C84.6123 23.2334 84.8953 21.7489 84.8953 20.0005C84.8953 17.5924 84.5062 15.7121 83.6925 14.4255C82.8789 13.139 81.2515 12.4792 78.846 12.4792H73.9286V27.9837H78.846Z" fill="#1C1C1E"/>
<path d="M161.873 32.138L156.724 16.3921H156.036L156.537 32.138H151.373V8.36357H158.51L163.961 24.9655H164.338L169.833 8.36356H176.97V32.138H171.807L172.308 16.3921H171.619L166.378 32.138L161.873 32.138Z" fill="#C0080E"/>
<path d="M199.335 30.2078C197.53 32.0799 194.922 33.016 191.479 33.016C188.035 33.016 185.394 32.0799 183.589 30.2078C181.148 27.901 179.911 24.6247 179.911 20.2786C179.911 15.8657 181.148 12.556 183.589 10.3495C185.394 8.47734 188.035 7.54126 191.479 7.54126C194.922 7.54126 197.53 8.47734 199.335 10.3495C201.776 12.556 202.979 15.8657 202.979 20.2786C202.979 24.6247 201.776 27.901 199.335 30.2078ZM196.226 26.5637C197.363 25.0927 197.964 22.9866 197.964 20.2786C197.964 17.6041 197.363 15.4979 196.226 14.027C195.022 12.556 193.451 11.8205 191.479 11.8205C189.473 11.8205 187.901 12.556 186.698 14.027C185.494 15.4979 184.926 17.5707 184.926 20.2786C184.926 22.9866 185.494 25.0927 186.698 26.5637C187.901 28.0347 189.473 28.7702 191.479 28.7702C193.451 28.7702 195.022 28.0347 196.226 26.5637Z" fill="#C0080E"/>
<path d="M217.098 12.556V32.3474H212.016V12.556H204.795V8.27675H224.286V12.556H217.098Z" fill="#C0080E"/>
<path d="M244.518 30.2078C242.713 32.0799 240.105 33.016 236.662 33.016C233.218 33.016 230.577 32.0799 228.772 30.2078C226.331 27.901 225.094 24.6247 225.094 20.2786C225.094 15.8657 226.331 12.556 228.772 10.3495C230.577 8.47734 233.218 7.54126 236.662 7.54126C240.105 7.54126 242.713 8.47734 244.518 10.3495C246.959 12.556 248.162 15.8657 248.162 20.2786C248.162 24.6247 246.959 27.901 244.518 30.2078ZM241.409 26.5637C242.546 25.0927 243.147 22.9866 243.147 20.2786C243.147 17.6041 242.546 15.4979 241.409 14.027C240.205 12.556 238.634 11.8205 236.662 11.8205C234.656 11.8205 233.085 12.556 231.881 14.027C230.677 15.4979 230.109 17.5707 230.109 20.2786C230.109 22.9866 230.677 25.0927 231.881 26.5637C233.085 28.0347 234.656 28.7702 236.662 28.7702C238.634 28.7702 240.205 28.0347 241.409 26.5637Z" fill="#C0080E"/>
<path d="M279.721 24.9256C279.855 26.0288 280.189 26.8312 280.624 27.3995C281.426 28.369 282.83 28.8705 284.803 28.8705C286.006 28.8705 286.976 28.7368 287.711 28.4693C289.116 27.9678 289.818 27.0318 289.818 25.6945C289.818 24.8922 289.483 24.2904 288.781 23.8558C288.079 23.4212 286.976 23.0534 285.472 22.7191L282.931 22.1508C280.457 21.5824 278.718 20.9807 277.749 20.3121C276.144 19.1754 275.308 17.4704 275.308 15.0968C275.308 12.9237 276.111 11.1519 277.682 9.7143C279.22 8.31018 281.527 7.57469 284.569 7.57469C287.11 7.57469 289.283 8.24332 291.055 9.58057C292.86 10.9513 293.796 12.8903 293.863 15.4645H289.049C288.948 13.9935 288.313 12.9571 287.143 12.3554C286.374 11.9542 285.371 11.7536 284.235 11.7536C282.931 11.7536 281.894 12.0211 281.125 12.556C280.357 13.0574 279.955 13.7929 279.955 14.729C279.955 15.5982 280.357 16.2334 281.125 16.668C281.594 16.9355 282.63 17.2698 284.235 17.671L288.38 18.6405C290.219 19.1085 291.589 19.6769 292.492 20.4123C293.93 21.5156 294.665 23.1872 294.665 25.3268C294.665 27.4998 293.829 29.3385 292.158 30.7761C290.453 32.2471 288.079 32.9826 285.004 32.9826C281.894 32.9826 279.42 32.2471 277.615 30.8095C275.81 29.4054 274.941 27.4329 274.941 24.9256H279.721Z" fill="#C0080E"/>
<path fill-rule="evenodd" clip-rule="evenodd" d="M270.35 10.8657C269.645 10.1497 268.792 9.59643 267.791 9.23844C266.789 8.88046 265.342 8.65264 263.487 8.6201H251.296V32.052H256.749V22.8745H261.596C263.228 22.8745 264.378 23.1348 264.971 23.623C265.565 24.1112 265.862 25.1201 265.899 26.6171L265.936 28.765C265.936 29.4484 265.899 32.052 265.899 32.052H271.649V30.1319C271.537 29.7413 271.5 29.0254 271.5 27.9514V26.3893C271.5 24.7295 271.241 23.5254 270.721 22.7118C270.202 21.8982 269.349 21.2798 268.124 20.8567C269.571 20.4337 270.647 19.6526 271.278 18.5786C271.908 17.5047 272.242 16.4307 272.242 15.2917C272.242 14.3804 272.094 13.5668 271.723 12.8509C271.389 12.1349 270.944 11.4515 270.35 10.8657ZM264.971 18.6112C264.341 18.8715 263.413 19.0017 262.152 19.0017H256.749V12.6881H262.3C263.525 12.6881 264.415 12.8509 265.046 13.1112C266.084 13.5994 266.641 14.5432 266.641 15.9751C266.641 17.2769 266.084 18.1556 264.971 18.6112Z" fill="#C0080E"/>
<path d="M189.213 41.6328C189.223 41.291 189.287 41.0027 189.405 40.7677C189.522 40.5327 189.682 40.3405 189.884 40.2017C190.086 40.0521 190.321 39.9453 190.598 39.8813C190.875 39.8172 191.173 39.7851 191.503 39.7851C191.77 39.7851 192.036 39.8065 192.292 39.8706C192.548 39.924 192.771 40.0094 192.963 40.1376C193.166 40.2551 193.325 40.4259 193.443 40.6182C193.57 40.8104 193.624 41.0561 193.624 41.3337V44.5805C193.624 44.6659 193.645 44.7514 193.698 44.8154C193.741 44.8795 193.826 44.9116 193.933 44.9116C193.975 44.9116 194.029 44.9009 194.082 44.8902C194.135 44.8902 194.188 44.8795 194.242 44.8688V45.531C194.167 45.5524 194.082 45.5737 194.007 45.5844C193.933 45.6058 193.837 45.6164 193.73 45.6164C193.56 45.6164 193.421 45.5951 193.304 45.5737C193.176 45.5417 193.08 45.499 192.995 45.4349C192.921 45.3708 192.857 45.2854 192.803 45.1786C192.761 45.0824 192.739 44.9543 192.718 44.8048C192.601 44.9329 192.473 45.0504 192.345 45.1572C192.217 45.2747 192.068 45.3708 191.898 45.4456C191.738 45.531 191.557 45.5951 191.354 45.6485C191.152 45.6912 190.928 45.7126 190.672 45.7126C190.459 45.7126 190.257 45.6805 190.055 45.6058C189.852 45.5417 189.66 45.4349 189.5 45.3067C189.341 45.1679 189.213 44.997 189.117 44.7941C189.01 44.6018 188.968 44.3669 188.968 44.0999C188.968 43.8115 189.01 43.5659 189.117 43.3523C189.213 43.1387 189.341 42.9678 189.49 42.8289C189.65 42.6794 189.831 42.5833 190.033 42.4979C190.236 42.4231 190.438 42.3804 190.64 42.3483L192.207 42.1561C192.356 42.1454 192.473 42.0813 192.558 41.9852C192.643 41.8784 192.686 41.7289 192.686 41.5046C192.686 41.1629 192.58 40.9279 192.356 40.7784C192.132 40.6289 191.823 40.5541 191.408 40.5541C190.981 40.5541 190.672 40.6502 190.459 40.8211C190.257 41.0027 190.129 41.2697 190.108 41.6328H189.213ZM192.665 42.7008C192.59 42.7542 192.494 42.7969 192.388 42.8396C192.271 42.8717 192.143 42.9037 192.015 42.9251C191.876 42.9571 191.727 42.9785 191.578 42.9891L191.12 43.0532C190.949 43.0853 190.79 43.1066 190.64 43.16C190.502 43.2027 190.374 43.2668 190.268 43.3309C190.15 43.4057 190.076 43.5018 190.012 43.5979C189.959 43.7047 189.927 43.8222 189.927 43.961C189.927 44.1212 189.948 44.2601 190.001 44.3882C190.055 44.5057 190.118 44.6125 190.214 44.6873C190.3 44.7727 190.406 44.8368 190.523 44.8795C190.651 44.9222 190.79 44.9436 190.939 44.9436C191.035 44.9436 191.141 44.9329 191.258 44.9009C191.386 44.8795 191.503 44.8582 191.631 44.8048C191.77 44.762 191.887 44.698 192.015 44.6339C192.132 44.5591 192.249 44.4737 192.345 44.3776C192.441 44.2708 192.516 44.164 192.58 44.0251C192.633 43.897 192.665 43.7581 192.665 43.5979V42.7008Z" fill="#1C1C1E"/>
<path d="M197.402 39.956C198.084 39.956 198.585 40.0842 198.926 40.3405C199.267 40.5968 199.427 40.9599 199.427 41.4405C199.427 41.6969 199.373 41.9211 199.246 42.092C199.118 42.2736 198.958 42.4231 198.755 42.5619C199.043 42.6687 199.278 42.8396 199.448 43.0425C199.629 43.2561 199.714 43.5231 199.714 43.8542C199.714 44.1106 199.672 44.3455 199.586 44.5591C199.491 44.762 199.363 44.9436 199.192 45.0931C199.011 45.232 198.787 45.3388 198.521 45.4242C198.244 45.499 197.914 45.5417 197.552 45.5417H195.026V39.956H197.402ZM197.434 42.3163C197.754 42.3163 198.01 42.2522 198.191 42.1241C198.383 41.9959 198.478 41.793 198.478 41.526C198.478 41.3765 198.446 41.2483 198.393 41.1415C198.34 41.0454 198.276 40.9599 198.191 40.8959C198.095 40.8318 198.01 40.7891 197.892 40.757C197.786 40.7357 197.669 40.725 197.562 40.725H195.985V42.3163H197.434ZM197.434 44.7727C197.69 44.7727 197.903 44.7514 198.074 44.7086C198.244 44.6766 198.372 44.6232 198.478 44.5378C198.574 44.463 198.649 44.3776 198.692 44.2601C198.734 44.1533 198.755 44.0358 198.755 43.897C198.755 43.7581 198.734 43.6406 198.692 43.5338C198.649 43.4163 198.574 43.3309 198.478 43.2561C198.372 43.1814 198.244 43.1173 198.074 43.0853C197.903 43.0425 197.69 43.0212 197.434 43.0212H195.985V44.7727H197.434Z" fill="#1C1C1E"/>
<path d="M200.309 39.956H205.104V40.7891H203.186V45.5417H202.227V40.7891H200.309V39.956Z" fill="#1C1C1E"/>
<path d="M210.804 42.7435C210.804 43.2027 210.751 43.6086 210.623 43.9824C210.506 44.3455 210.346 44.6552 210.122 44.9116C209.898 45.1679 209.621 45.3708 209.302 45.5096C208.982 45.6485 208.62 45.7126 208.215 45.7126C207.81 45.7126 207.448 45.6485 207.128 45.5096C206.809 45.3708 206.542 45.1679 206.318 44.9116C206.095 44.6552 205.924 44.3455 205.807 43.9824C205.69 43.6086 205.626 43.2027 205.626 42.7435C205.626 42.2843 205.69 41.8784 205.807 41.5153C205.924 41.1522 206.095 40.8425 206.318 40.5861C206.542 40.3298 206.809 40.1269 207.128 39.9881C207.448 39.8492 207.81 39.7851 208.215 39.7851C208.62 39.7851 208.982 39.8492 209.302 39.9881C209.621 40.1269 209.898 40.3298 210.122 40.5861C210.346 40.8425 210.506 41.1522 210.623 41.5153C210.751 41.8784 210.804 42.2843 210.804 42.7435ZM209.845 42.7435C209.845 42.4338 209.813 42.1454 209.738 41.8891C209.675 41.6328 209.568 41.4085 209.429 41.2163C209.291 41.0347 209.12 40.8852 208.918 40.7784C208.716 40.6716 208.481 40.6182 208.215 40.6182C207.949 40.6182 207.714 40.6716 207.512 40.7784C207.309 40.8852 207.139 41.0347 207 41.2163C206.862 41.4085 206.755 41.6328 206.691 41.8891C206.617 42.1454 206.585 42.4338 206.585 42.7435C206.585 43.0532 206.617 43.3416 206.691 43.5979C206.755 43.8649 206.862 44.0892 207 44.2814C207.139 44.463 207.309 44.6125 207.512 44.7193C207.714 44.8261 207.949 44.8795 208.215 44.8795C208.481 44.8795 208.716 44.8261 208.918 44.7193C209.12 44.6125 209.291 44.463 209.429 44.2814C209.568 44.0892 209.675 43.8649 209.738 43.5979C209.813 43.3416 209.845 43.0532 209.845 42.7435Z" fill="#1C1C1E"/>
<path d="M214.625 44.5378H214.646L216.138 39.956H217.449V45.5417H216.554V41.0454H216.532L215.062 45.5417H214.146L212.675 41.0454H212.654V45.5417H211.759V39.956H213.155L214.625 44.5378Z" fill="#1C1C1E"/>
<path d="M223.586 42.7435C223.586 43.2027 223.532 43.6086 223.404 43.9824C223.287 44.3455 223.127 44.6552 222.904 44.9116C222.68 45.1679 222.403 45.3708 222.083 45.5096C221.764 45.6485 221.401 45.7126 220.997 45.7126C220.592 45.7126 220.229 45.6485 219.91 45.5096C219.59 45.3708 219.324 45.1679 219.1 44.9116C218.876 44.6552 218.706 44.3455 218.589 43.9824C218.472 43.6086 218.408 43.2027 218.408 42.7435C218.408 42.2843 218.472 41.8784 218.589 41.5153C218.706 41.1522 218.876 40.8425 219.1 40.5861C219.324 40.3298 219.59 40.1269 219.91 39.9881C220.229 39.8492 220.592 39.7851 220.997 39.7851C221.401 39.7851 221.764 39.8492 222.083 39.9881C222.403 40.1269 222.68 40.3298 222.904 40.5861C223.127 40.8425 223.287 41.1522 223.404 41.5153C223.532 41.8784 223.586 42.2843 223.586 42.7435ZM222.627 42.7435C222.627 42.4338 222.595 42.1454 222.52 41.8891C222.456 41.6328 222.35 41.4085 222.211 41.2163C222.073 41.0347 221.902 40.8852 221.7 40.7784C221.497 40.6716 221.263 40.6182 220.997 40.6182C220.73 40.6182 220.496 40.6716 220.293 40.7784C220.091 40.8852 219.92 41.0347 219.782 41.2163C219.643 41.4085 219.537 41.6328 219.473 41.8891C219.398 42.1454 219.366 42.4338 219.366 42.7435C219.366 43.0532 219.398 43.3416 219.473 43.5979C219.537 43.8649 219.643 44.0892 219.782 44.2814C219.92 44.463 220.091 44.6125 220.293 44.7193C220.496 44.8261 220.73 44.8795 220.997 44.8795C221.263 44.8795 221.497 44.8261 221.7 44.7193C221.902 44.6125 222.073 44.463 222.211 44.2814C222.35 44.0892 222.456 43.8649 222.52 43.5979C222.595 43.3416 222.627 43.0532 222.627 42.7435Z" fill="#1C1C1E"/>
<path d="M228.867 37.8093C228.867 37.8627 228.856 37.9268 228.845 37.9909C228.824 38.0763 228.803 38.1511 228.771 38.2365C228.728 38.322 228.685 38.4074 228.632 38.4822C228.568 38.5783 228.483 38.653 228.387 38.7278C228.323 38.7598 228.281 38.8026 228.238 38.8239C228.185 38.856 228.131 38.8773 228.057 38.8987C227.993 38.9201 227.908 38.9307 227.801 38.9521C227.684 38.9628 227.545 38.9735 227.364 38.9735L226.97 38.9841C226.704 38.9948 226.459 39.0482 226.246 39.1443C226.022 39.2511 225.83 39.39 225.67 39.5715C225.5 39.7531 225.372 39.9774 225.255 40.2337C225.148 40.49 225.074 40.7784 225.02 41.0988C225.095 40.9599 225.18 40.8211 225.287 40.6823C225.393 40.5541 225.532 40.4366 225.692 40.3298C225.851 40.223 226.043 40.1376 226.256 40.0735C226.469 40.0094 226.714 39.9774 227.002 39.9774C227.322 39.9774 227.631 40.0308 227.918 40.1483C228.206 40.2657 228.462 40.4366 228.685 40.6609C228.898 40.8959 229.069 41.1842 229.197 41.526C229.325 41.8571 229.389 42.2522 229.389 42.7115C229.389 42.8503 229.378 43.0212 229.357 43.2241C229.335 43.427 229.293 43.6406 229.229 43.8649C229.165 44.0892 229.08 44.3135 228.962 44.5271C228.845 44.7514 228.696 44.9543 228.504 45.1252C228.312 45.296 228.078 45.4349 227.801 45.5524C227.524 45.6592 227.194 45.7126 226.81 45.7126C226.65 45.7126 226.48 45.7019 226.299 45.6805C226.118 45.6485 225.947 45.5951 225.766 45.531C225.585 45.4669 225.415 45.3601 225.244 45.2426C225.074 45.1145 224.924 44.9543 224.786 44.762C224.722 44.6552 224.647 44.5484 224.583 44.4203C224.509 44.2921 224.456 44.1426 224.392 43.961C224.338 43.7795 224.296 43.5659 224.264 43.3202C224.232 43.0746 224.211 42.7862 224.211 42.4445C224.211 42.2202 224.221 41.9745 224.243 41.6862C224.264 41.4085 224.296 41.1201 224.349 40.8318C224.402 40.5327 224.477 40.2551 224.562 39.9774C224.647 39.7104 224.754 39.4647 224.892 39.2618C225.042 39.0375 225.191 38.8667 225.351 38.7171C225.51 38.5783 225.681 38.4715 225.862 38.3967C226.043 38.3113 226.235 38.2579 226.448 38.2152C226.65 38.1831 226.874 38.1618 227.119 38.1511L227.46 38.1404C227.567 38.1404 227.663 38.1297 227.748 38.119C227.822 38.119 227.886 38.0977 227.94 38.0763C227.993 38.055 228.035 38.0229 228.057 37.9802C228.089 37.9482 228.121 37.8841 228.142 37.8093H228.867ZM225.169 42.8503C225.169 42.9571 225.169 43.0853 225.191 43.2241C225.201 43.3629 225.223 43.5125 225.265 43.662C225.297 43.8222 225.361 43.9824 225.425 44.1319C225.5 44.2814 225.606 44.4203 225.723 44.5378C225.841 44.6552 225.99 44.7514 226.16 44.8261C226.341 44.9009 226.555 44.9436 226.8 44.9436C227.077 44.9436 227.3 44.8902 227.492 44.8048C227.673 44.7193 227.833 44.6018 227.95 44.463C228.067 44.3242 228.163 44.1746 228.238 43.9931C228.291 43.8222 228.344 43.662 228.376 43.5018C228.398 43.3309 228.419 43.1921 228.43 43.0532V42.7542C228.43 42.4979 228.408 42.2522 228.344 42.0066C228.291 41.7609 228.195 41.5473 228.067 41.3551C227.94 41.1735 227.78 41.024 227.577 40.9065C227.375 40.7891 227.13 40.7357 226.832 40.7357C226.544 40.7357 226.288 40.7891 226.086 40.8959C225.873 41.0133 225.702 41.1629 225.574 41.3551C225.436 41.5473 225.34 41.7716 225.265 42.0279C225.201 42.2843 225.169 42.5619 225.169 42.8503Z" fill="#1C1C1E"/>
<path d="M231.303 39.0269H230.344V37.9375H231.303V39.0269ZM231.303 45.5417H230.344V39.956H231.303V45.5417Z" fill="#1C1C1E"/>
<path d="M234.165 42.1347C234.144 42.8076 234.091 43.3736 234.006 43.8222C233.92 44.2814 233.814 44.6446 233.665 44.9222C233.526 45.1999 233.345 45.3922 233.143 45.5096C232.94 45.6164 232.706 45.6805 232.439 45.6805C232.343 45.6805 232.258 45.6592 232.194 45.6378C232.12 45.6058 232.066 45.5737 232.024 45.5417V44.698C232.162 44.7514 232.28 44.7727 232.386 44.7727C232.461 44.7727 232.535 44.762 232.599 44.7407C232.663 44.7086 232.727 44.6659 232.791 44.6018C232.844 44.5271 232.908 44.431 232.961 44.3028C233.004 44.1746 233.057 44.0038 233.1 43.8008C233.132 43.5979 233.174 43.3523 233.196 43.0639C233.217 42.7649 233.238 42.4231 233.249 42.0173L233.292 39.956H237.298V45.5417H236.339V40.7891H234.208L234.165 42.1347Z" fill="#1C1C1E"/>
<path d="M239.548 39.0269H238.589V37.9375H239.548V39.0269ZM239.548 45.5417H238.589V39.956H239.548V45.5417Z" fill="#1C1C1E"/>
<path d="M245.61 42.3163C245.738 42.3163 245.866 42.2949 246.005 42.2629C246.143 42.2309 246.271 42.1881 246.388 42.1134C246.505 42.0493 246.591 41.9639 246.676 41.8571C246.75 41.7503 246.782 41.6114 246.782 41.4619C246.782 41.3551 246.761 41.2483 246.718 41.1415C246.665 41.0454 246.591 40.9493 246.505 40.8745C246.409 40.7891 246.303 40.7357 246.154 40.6823C246.015 40.6395 245.855 40.6182 245.674 40.6182C245.578 40.6182 245.461 40.6395 245.333 40.6609C245.195 40.6823 245.067 40.7357 244.95 40.8104C244.811 40.8852 244.705 40.992 244.609 41.1308C244.513 41.2697 244.438 41.4512 244.417 41.6648H243.522C243.543 41.4192 243.597 41.1949 243.671 41.0027C243.746 40.8211 243.842 40.6502 243.959 40.5114C244.076 40.3725 244.204 40.2551 244.342 40.1696C244.492 40.0735 244.641 39.9987 244.79 39.9453C244.95 39.8813 245.099 39.8492 245.259 39.8172C245.419 39.7958 245.568 39.7851 245.706 39.7851C245.951 39.7851 246.196 39.8172 246.441 39.8813C246.686 39.9453 246.91 40.0415 247.102 40.1696C247.294 40.2978 247.443 40.4687 247.56 40.6609C247.677 40.8638 247.741 41.0881 247.741 41.3551C247.741 41.5367 247.709 41.6755 247.667 41.8037C247.624 41.9425 247.56 42.0493 247.475 42.1561C247.4 42.2522 247.315 42.327 247.208 42.4017C247.113 42.4658 247.017 42.5192 246.931 42.5726V42.594C247.027 42.6153 247.134 42.6474 247.251 42.7008C247.368 42.7542 247.475 42.8289 247.581 42.9251C247.677 43.0319 247.763 43.16 247.837 43.3095C247.901 43.4697 247.933 43.6513 247.933 43.8756C247.933 44.196 247.858 44.463 247.731 44.6873C247.603 44.9222 247.422 45.1038 247.208 45.264C246.995 45.4135 246.75 45.531 246.484 45.6058C246.207 45.6805 245.941 45.7126 245.664 45.7126C245.312 45.7126 244.992 45.6698 244.705 45.5737C244.417 45.4883 244.172 45.3601 243.959 45.1892C243.757 45.029 243.586 44.8261 243.469 44.5912C243.341 44.3562 243.266 44.0999 243.245 43.8222H244.204C244.236 44.0251 244.289 44.196 244.385 44.3348C244.481 44.463 244.588 44.5805 244.726 44.6552C244.854 44.73 245.003 44.7941 245.163 44.8261C245.323 44.8688 245.482 44.8795 245.653 44.8795C246.09 44.8795 246.42 44.7941 246.644 44.6125C246.868 44.431 246.974 44.196 246.974 43.897C246.974 43.7688 246.953 43.6513 246.921 43.5552C246.878 43.4591 246.804 43.3629 246.718 43.2989C246.622 43.2241 246.495 43.1707 246.345 43.128C246.186 43.0959 245.994 43.0853 245.77 43.0853H245.621C245.557 43.0853 245.504 43.0853 245.44 43.0959H245.269L245.12 43.1173V42.3163H245.61Z" fill="#1C1C1E"/>
<path d="M252.699 45.5417H251.74V39.956H256.257V45.5417H255.298V40.7891H252.699V45.5417Z" fill="#1C1C1E"/>
<path d="M258.449 40.725H258.47C258.534 40.5968 258.608 40.4687 258.704 40.3619C258.8 40.2444 258.917 40.1483 259.056 40.0521C259.184 39.9774 259.333 39.9026 259.514 39.8599C259.684 39.8065 259.887 39.7851 260.111 39.7851C260.409 39.7851 260.697 39.8385 260.974 39.956C261.251 40.0735 261.485 40.2444 261.698 40.4687C261.911 40.7036 262.082 40.992 262.199 41.3337C262.327 41.6862 262.391 42.0813 262.391 42.5406C262.391 43.1173 262.337 43.5979 262.22 44.0038C262.103 44.4096 261.943 44.73 261.719 44.9863C261.506 45.2426 261.251 45.4242 260.952 45.5417C260.643 45.6592 260.313 45.7126 259.94 45.7126C259.759 45.7126 259.589 45.6912 259.429 45.6378C259.269 45.5951 259.12 45.531 259.003 45.4456C258.864 45.3708 258.758 45.2854 258.672 45.1892C258.587 45.0931 258.512 44.997 258.47 44.9116H258.449V47.7418H257.49V39.956H258.449V40.725ZM258.427 42.7755C258.427 43.0853 258.459 43.3523 258.512 43.6086C258.576 43.8649 258.662 44.0892 258.79 44.2814C258.907 44.463 259.067 44.6125 259.258 44.7193C259.439 44.8261 259.653 44.8795 259.908 44.8795C260.175 44.8795 260.398 44.8261 260.601 44.7193C260.793 44.6125 260.942 44.463 261.07 44.2814C261.197 44.0892 261.283 43.8649 261.347 43.6086C261.4 43.3523 261.432 43.0853 261.432 42.7755C261.432 42.4551 261.4 42.1775 261.347 41.9105C261.283 41.6435 261.197 41.4192 261.07 41.2269C260.942 41.0347 260.793 40.8852 260.601 40.7784C260.398 40.6716 260.175 40.6182 259.908 40.6182C259.653 40.6182 259.439 40.6716 259.258 40.7784C259.067 40.8852 258.907 41.0347 258.79 41.2269C258.662 41.4192 258.576 41.6435 258.512 41.9105C258.459 42.1775 258.427 42.4551 258.427 42.7755Z" fill="#1C1C1E"/>
<path d="M268.194 42.7435C268.194 43.2027 268.14 43.6086 268.013 43.9824C267.895 44.3455 267.736 44.6552 267.512 44.9116C267.288 45.1679 267.011 45.3708 266.691 45.5096C266.372 45.6485 266.01 45.7126 265.605 45.7126C265.2 45.7126 264.838 45.6485 264.518 45.5096C264.198 45.3708 263.932 45.1679 263.708 44.9116C263.484 44.6552 263.314 44.3455 263.197 43.9824C263.08 43.6086 263.016 43.2027 263.016 42.7435C263.016 42.2843 263.08 41.8784 263.197 41.5153C263.314 41.1522 263.484 40.8425 263.708 40.5861C263.932 40.3298 264.198 40.1269 264.518 39.9881C264.838 39.8492 265.2 39.7851 265.605 39.7851C266.01 39.7851 266.372 39.8492 266.691 39.9881C267.011 40.1269 267.288 40.3298 267.512 40.5861C267.736 40.8425 267.895 41.1522 268.013 41.5153C268.14 41.8784 268.194 42.2843 268.194 42.7435ZM267.235 42.7435C267.235 42.4338 267.203 42.1454 267.128 41.8891C267.064 41.6328 266.958 41.4085 266.819 41.2163C266.681 41.0347 266.51 40.8852 266.308 40.7784C266.105 40.6716 265.871 40.6182 265.605 40.6182C265.338 40.6182 265.104 40.6716 264.901 40.7784C264.699 40.8852 264.529 41.0347 264.39 41.2163C264.252 41.4085 264.145 41.6328 264.081 41.8891C264.007 42.1454 263.975 42.4338 263.975 42.7435C263.975 43.0532 264.007 43.3416 264.081 43.5979C264.145 43.8649 264.252 44.0892 264.39 44.2814C264.529 44.463 264.699 44.6125 264.901 44.7193C265.104 44.8261 265.338 44.8795 265.605 44.8795C265.871 44.8795 266.105 44.8261 266.308 44.7193C266.51 44.6125 266.681 44.463 266.819 44.2814C266.958 44.0892 267.064 43.8649 267.128 43.5979C267.203 43.3416 267.235 43.0532 267.235 42.7435Z" fill="#1C1C1E"/>
<path d="M273.475 37.8093C273.475 37.8627 273.464 37.9268 273.453 37.9909C273.432 38.0763 273.411 38.1511 273.379 38.2365C273.336 38.322 273.293 38.4074 273.24 38.4822C273.176 38.5783 273.091 38.653 272.995 38.7278C272.931 38.7598 272.889 38.8026 272.846 38.8239C272.793 38.856 272.739 38.8773 272.665 38.8987C272.601 38.9201 272.516 38.9307 272.409 38.9521C272.292 38.9628 272.153 38.9735 271.972 38.9735L271.578 38.9841C271.312 38.9948 271.067 39.0482 270.854 39.1443C270.63 39.2511 270.438 39.39 270.278 39.5715C270.108 39.7531 269.98 39.9774 269.863 40.2337C269.756 40.49 269.682 40.7784 269.628 41.0988C269.703 40.9599 269.788 40.8211 269.895 40.6823C270.001 40.5541 270.14 40.4366 270.3 40.3298C270.459 40.223 270.651 40.1376 270.864 40.0735C271.077 40.0094 271.322 39.9774 271.61 39.9774C271.93 39.9774 272.239 40.0308 272.526 40.1483C272.814 40.2657 273.07 40.4366 273.293 40.6609C273.507 40.8959 273.677 41.1842 273.805 41.526C273.933 41.8571 273.997 42.2522 273.997 42.7115C273.997 42.8503 273.986 43.0212 273.965 43.2241C273.943 43.427 273.901 43.6406 273.837 43.8649C273.773 44.0892 273.688 44.3135 273.57 44.5271C273.453 44.7514 273.304 44.9543 273.112 45.1252C272.921 45.296 272.686 45.4349 272.409 45.5524C272.132 45.6592 271.802 45.7126 271.418 45.7126C271.258 45.7126 271.088 45.7019 270.907 45.6805C270.726 45.6485 270.555 45.5951 270.374 45.531C270.193 45.4669 270.023 45.3601 269.852 45.2426C269.682 45.1145 269.533 44.9543 269.394 44.762C269.33 44.6552 269.255 44.5484 269.192 44.4203C269.117 44.2921 269.064 44.1426 269 43.961C268.947 43.7795 268.904 43.5659 268.872 43.3202C268.84 43.0746 268.819 42.7862 268.819 42.4445C268.819 42.2202 268.829 41.9745 268.851 41.6862C268.872 41.4085 268.904 41.1201 268.957 40.8318C269.01 40.5327 269.085 40.2551 269.17 39.9774C269.255 39.7104 269.362 39.4647 269.501 39.2618C269.65 39.0375 269.799 38.8667 269.959 38.7171C270.118 38.5783 270.289 38.4715 270.47 38.3967C270.651 38.3113 270.843 38.2579 271.056 38.2152C271.258 38.1831 271.482 38.1618 271.727 38.1511L272.068 38.1404C272.175 38.1404 272.271 38.1297 272.356 38.119C272.43 38.119 272.494 38.0977 272.548 38.0763C272.601 38.055 272.644 38.0229 272.665 37.9802C272.697 37.9482 272.729 37.8841 272.75 37.8093H273.475ZM269.778 42.8503C269.778 42.9571 269.778 43.0853 269.799 43.2241C269.81 43.3629 269.831 43.5125 269.873 43.662C269.905 43.8222 269.969 43.9824 270.033 44.1319C270.108 44.2814 270.214 44.4203 270.332 44.5378C270.449 44.6552 270.598 44.7514 270.768 44.8261C270.95 44.9009 271.163 44.9436 271.408 44.9436C271.685 44.9436 271.908 44.8902 272.1 44.8048C272.281 44.7193 272.441 44.6018 272.558 44.463C272.676 44.3242 272.771 44.1746 272.846 43.9931C272.899 43.8222 272.953 43.662 272.984 43.5018C273.006 43.3309 273.027 43.1921 273.038 43.0532V42.7542C273.038 42.4979 273.016 42.2522 272.953 42.0066C272.899 41.7609 272.803 41.5473 272.676 41.3551C272.548 41.1735 272.388 41.024 272.185 40.9065C271.983 40.7891 271.738 40.7357 271.44 40.7357C271.152 40.7357 270.896 40.7891 270.694 40.8959C270.481 41.0133 270.31 41.1629 270.182 41.3551C270.044 41.5473 269.948 41.7716 269.873 42.0279C269.81 42.2843 269.778 42.5619 269.778 42.8503Z" fill="#1C1C1E"/>
<path d="M275.911 39.0269H274.952V37.9375H275.911V39.0269ZM275.911 45.5417H274.952V39.956H275.911V45.5417Z" fill="#1C1C1E"/>
<path d="M280.659 40.7891H278.155V45.5417H277.197V39.956H280.659V40.7891Z" fill="#1C1C1E"/>
<path d="M286.224 42.7435C286.224 43.2027 286.171 43.6086 286.043 43.9824C285.926 44.3455 285.766 44.6552 285.542 44.9116C285.319 45.1679 285.042 45.3708 284.722 45.5096C284.402 45.6485 284.04 45.7126 283.635 45.7126C283.23 45.7126 282.868 45.6485 282.548 45.5096C282.229 45.3708 281.962 45.1679 281.739 44.9116C281.515 44.6552 281.344 44.3455 281.227 43.9824C281.11 43.6086 281.046 43.2027 281.046 42.7435C281.046 42.2843 281.11 41.8784 281.227 41.5153C281.344 41.1522 281.515 40.8425 281.739 40.5861C281.962 40.3298 282.229 40.1269 282.548 39.9881C282.868 39.8492 283.23 39.7851 283.635 39.7851C284.04 39.7851 284.402 39.8492 284.722 39.9881C285.042 40.1269 285.319 40.3298 285.542 40.5861C285.766 40.8425 285.926 41.1522 286.043 41.5153C286.171 41.8784 286.224 42.2843 286.224 42.7435ZM285.265 42.7435C285.265 42.4338 285.233 42.1454 285.159 41.8891C285.095 41.6328 284.988 41.4085 284.85 41.2163C284.711 41.0347 284.541 40.8852 284.338 40.7784C284.136 40.6716 283.902 40.6182 283.635 40.6182C283.369 40.6182 283.134 40.6716 282.932 40.7784C282.73 40.8852 282.559 41.0347 282.421 41.2163C282.282 41.4085 282.176 41.6328 282.112 41.8891C282.037 42.1454 282.005 42.4338 282.005 42.7435C282.005 43.0532 282.037 43.3416 282.112 43.5979C282.176 43.8649 282.282 44.0892 282.421 44.2814C282.559 44.463 282.73 44.6125 282.932 44.7193C283.134 44.8261 283.369 44.8795 283.635 44.8795C283.902 44.8795 284.136 44.8261 284.338 44.7193C284.541 44.6125 284.711 44.463 284.85 44.2814C284.988 44.0892 285.095 43.8649 285.159 43.5979C285.233 43.3416 285.265 43.0532 285.265 42.7435Z" fill="#1C1C1E"/>
<path d="M290.045 44.5378H290.067L291.558 39.956H292.869V45.5417H291.974V41.0454H291.953L290.482 45.5417H289.566L288.096 41.0454H288.074V45.5417H287.179V39.956H288.575L290.045 44.5378Z" fill="#1C1C1E"/>
</svg>
