<svg width="24" height="20" viewBox="0 0 24 20" fill="none" xmlns="http://www.w3.org/2000/svg">
<path d="M4.15111 19.4654C2.27975 17.4554 1.12988 14.7279 1.12988 11.724C1.12988 5.54417 5.99649 0.534424 11.9998 0.534424C18.003 0.534424 22.8696 5.54417 22.8696 11.724C22.8696 14.7279 21.7198 17.4554 19.8484 19.4654" stroke="#C0080E"/>
<path d="M12 2.13281V3.73132" stroke="#C0080E" stroke-linecap="round"/>
<path d="M3.04785 11.4043H4.64636" stroke="#C0080E" stroke-linecap="round"/>
<path d="M19.3535 11.4043H20.952" stroke="#C0080E" stroke-linecap="round"/>
<path d="M18.8848 5.01025L17.7544 6.14057" stroke="#C0080E" stroke-linecap="round"/>
<path d="M18.8848 18.2893L17.7544 17.159" stroke="#C0080E" stroke-linecap="round"/>
<path d="M4.9668 5.01025L6.09711 6.14057" stroke="#C0080E" stroke-linecap="round"/>
<path d="M8.90918 8.55347L11.5223 11.0544" stroke="#C0080E" stroke-linecap="round"/>
<path d="M4.9668 18.2893L6.09711 17.159" stroke="#C0080E" stroke-linecap="round"/>
<circle cx="11.9995" cy="11.4043" r="1.27881" fill="white" stroke="#C0080E"/>
</svg>
