<svg width="77" height="92" viewBox="0 0 77 92" fill="none" xmlns="http://www.w3.org/2000/svg">
<path d="M8.13281 90.1602H68.8672C72.1809 90.1602 74.8672 87.4739 74.8672 84.1602V17.7626C74.8672 15.9111 74.0123 14.1632 72.5508 13.0265L59.793 3.10373C58.7398 2.28458 57.4436 1.83984 56.1093 1.83984H8.13281C4.8191 1.83984 2.13281 4.52613 2.13281 7.83984V84.1602C2.13281 87.4739 4.8191 90.1602 8.13281 90.1602Z" stroke="#C0080E" stroke-width="3"/>
<path d="M57.0547 2.65045V14.9414C57.0547 15.4937 57.5024 15.9414 58.0547 15.9414H74.0566" stroke="#C0080E" stroke-width="3"/>
<path d="M9.55469 49.3398H43.6953" stroke="#1C1C1E" stroke-width="3" stroke-linecap="round"/>
<path d="M9.55469 18.9102H31.0781" stroke="#1C1C1E" stroke-width="3" stroke-linecap="round"/>
<path d="M51.1172 49.3398H65.2187" stroke="#1C1C1E" stroke-width="3" stroke-linecap="round"/>
<path d="M9.55469 58.9883H43.6953" stroke="#1C1C1E" stroke-width="3" stroke-linecap="round"/>
<path d="M9.55469 27.0742H34.7891" stroke="#1C1C1E" stroke-width="3" stroke-linecap="round"/>
<path d="M9.55469 33.7539H34.7891" stroke="#1C1C1E" stroke-width="3" stroke-linecap="round"/>
<path d="M51.1172 58.9883H65.2187" stroke="#1C1C1E" stroke-width="3" stroke-linecap="round"/>
<path d="M9.55469 68.6367H43.6953" stroke="#1C1C1E" stroke-width="3" stroke-linecap="round"/>
<path d="M51.1172 68.6367H65.2187" stroke="#1C1C1E" stroke-width="3" stroke-linecap="round"/>
<path d="M44.4375 39.6914H65.2187" stroke="#1C1C1E" stroke-width="3" stroke-linecap="round"/>
</svg>
