<svg width="105" height="92" viewBox="0 0 105 92" fill="none" xmlns="http://www.w3.org/2000/svg">
<path d="M4.64703 62.7049C5.86134 61.4906 7.83012 61.4906 9.04443 62.7049L28.8327 82.4932C30.047 83.7075 30.047 85.6763 28.8327 86.8906L26.634 89.0893C25.4197 90.3036 23.4509 90.3036 22.2366 89.0893L2.44833 69.301C1.23402 68.0867 1.23402 66.1179 2.44833 64.9036L4.64703 62.7049Z" stroke="#1C1C1E" stroke-width="3"/>
<path d="M40.6826 36.9299L75.0054 2.6071C75.8149 1.79756 77.1275 1.79756 77.937 2.6071L102.856 27.5257C103.665 28.3352 103.665 29.6478 102.856 30.4573L57.4158 75.8971C56.6063 76.7067 55.2937 76.7067 54.4842 75.8971L47.4197 68.8326" stroke="#CD1B1B" stroke-width="3" stroke-linecap="round"/>
<path d="M10.144 63.8044L15.4856 58.4629C16.5533 57.3951 17.3749 56.1069 17.8928 54.6884L24.5247 36.5228C25.1851 34.7137 26.3365 33.1245 27.8497 31.9333L40.163 22.2397C41.8513 20.9107 43.9108 20.1392 46.0567 20.0319L57.4161 19.4639M40.683 37.2215L41.4209 48.4569C41.5571 50.5296 43.207 52.1812 45.2796 52.3194C46.4717 52.3988 47.6401 51.9598 48.4849 51.115L56.9454 42.6545C58.6408 40.9591 60.9887 40.0833 63.3802 40.2541L67.1859 40.5259C68.7636 40.6386 70.0587 41.8175 70.3187 43.3777C70.5004 44.4682 70.1443 45.5794 69.3626 46.3611L46.0301 69.6937C44.6121 71.1116 42.8134 72.0878 40.8518 72.5038L34.7703 73.7939C32.8087 74.21 31.0099 75.1861 29.592 76.604L27.0007 79.1953" stroke="#1C1C1E" stroke-width="3" stroke-linecap="round"/>
<path d="M102.856 30.4573C103.665 29.6478 103.665 28.3352 102.856 27.5257L77.937 2.6071C77.1275 1.79756 75.8149 1.79756 75.0054 2.6071L45 32.6125" stroke="#CD1B1B" stroke-width="3" stroke-linecap="round"/>
<path d="M62.5269 35.3243C63.6155 32.362 66.8994 30.8431 69.8618 31.9317C72.8241 33.0203 74.343 36.3042 73.2544 39.2666" stroke="#CD1B1B" stroke-width="3" stroke-linecap="round"/>
<path d="M47.3159 38.9339L70.3152 15.9346C70.6705 15.5793 71.2294 15.5301 71.6414 15.8177L74.7517 17.989C75.1637 18.2766 75.7226 18.2273 76.0779 17.872L77.4687 16.4812C77.8734 16.0764 78.5297 16.0764 78.9345 16.4812L88.2487 25.7954C88.6535 26.2002 88.6535 26.8565 88.2487 27.2612L86.8579 28.652C86.5026 29.0073 86.4533 29.5662 86.7409 29.9782L88.9122 33.0885C89.1999 33.5005 89.1506 34.0594 88.7953 34.4147L78.2016 45.0084" stroke="#CD1B1B" stroke-width="3" stroke-linecap="round"/>
</svg>
