<svg width="83" height="98" viewBox="0 0 83 98" fill="none" xmlns="http://www.w3.org/2000/svg">
<rect x="1.68164" y="10.8948" width="12.0791" height="38.2504" rx="3" stroke="#1C1C1E" stroke-width="3"/>
<path d="M13.7607 14.9212L23.3635 11.636C25.4475 10.9231 27.6348 10.5593 29.8373 10.5593H41.6045C43.5482 10.5593 45.4194 11.2977 46.8393 12.6251L57.2658 22.3715C58.8362 23.8395 58.9881 26.2781 57.6118 27.9296V27.9296C56.184 29.643 53.6406 29.8816 51.9189 28.4638L46.648 24.123C44.6923 22.5125 42.2376 21.6318 39.7041 21.6318H30.8728M13.7607 44.4479L20.4713 46.461" stroke="#1C1C1E" stroke-width="3"/>
<rect x="59.3928" y="17.6055" width="17.4476" height="8.05272" rx="4.02636" stroke="#1C1C1E" stroke-width="3"/>
<rect x="59.3928" y="25.6581" width="17.4476" height="8.05272" rx="4.02636" stroke="#1C1C1E" stroke-width="3"/>
<rect x="59.3928" y="33.7108" width="17.4476" height="8.05272" rx="4.02636" stroke="#1C1C1E" stroke-width="3"/>
<rect x="59.3928" y="41.7635" width="17.4476" height="8.05272" rx="4.02636" stroke="#1C1C1E" stroke-width="3"/>
<path d="M36.2414 21.6317C36.2414 21.6317 20.4713 41.0925 16.1096 57.5335C7.5907 89.6443 23.8266 96.4999 47.566 96.4999C71.3055 96.4999 87.5414 89.6442 79.0225 57.5334C77.8846 53.244 75.4982 48.4741 75.4982 48.4741" stroke="#1C1C1E" stroke-width="3"/>
<path d="M63.2248 17.941L66.0008 9.77627C66.8439 7.29646 65.8425 4.56445 63.5966 3.21687V3.21687C61.8353 2.1601 59.635 2.1601 57.8737 3.21687L57.3798 3.51318C55.3146 4.75233 52.7345 4.75233 50.6692 3.51318V3.51318C48.604 2.27403 46.0239 2.27403 43.9586 3.51318V3.51318C41.8934 4.75233 39.3133 4.75233 37.248 3.51318L36.4565 3.03824C34.8784 2.09142 32.907 2.09142 31.329 3.03824V3.03824C29.0189 4.42427 28.2288 7.39533 29.545 9.74583L30.0006 10.5593" stroke="#1C1C1E" stroke-width="3"/>
<path d="M57.0531 63.9275C57.0531 68.1831 53.7432 71.0877 48.4068 71.5606V72.9453C48.4068 73.6728 47.817 74.2625 47.0896 74.2625C46.3621 74.2625 45.7724 73.6728 45.7724 72.9453V71.6281C42.9222 71.4089 40.2499 70.567 38.1164 69.0663C37.2762 68.4754 37.2129 67.301 37.8567 66.5006C38.5892 65.5899 39.9409 65.5204 40.9243 66.1519C42.3922 67.0945 44.0483 67.6734 45.7724 67.9129V59.942C41.3141 58.591 37.5988 56.9698 37.5988 52.5791C37.5988 48.5261 40.7737 45.8242 45.7724 45.3513V44.2367C45.7724 43.5093 46.3621 42.9195 47.0896 42.9195C47.817 42.9195 48.4068 43.5093 48.4068 44.2367V45.3513C50.8454 45.4573 52.9512 46.1043 54.8875 47.2594C55.7871 47.7961 55.9435 48.9972 55.3178 49.8374C54.6504 50.7336 53.3668 50.8537 52.3964 50.2995C51.2151 49.6248 49.8852 49.1782 48.4068 48.999V56.6321C54.2161 58.1182 57.0531 60.0096 57.0531 63.9275ZM41.6518 52.3765C41.6518 54.0652 42.8677 55.0109 45.7724 55.889V48.999C43.1379 49.2692 41.6518 50.5526 41.6518 52.3765ZM48.4068 67.9129C51.2439 67.6427 52.8651 66.3592 52.8651 64.3328C52.8651 62.644 51.8518 61.6983 48.4068 60.6851V67.9129Z" fill="#C0080E"/>
</svg>
