<svg width="101" height="98" viewBox="0 0 101 98" fill="none" xmlns="http://www.w3.org/2000/svg">
<path d="M84.3985 53.8148L99.5 75M88.1152 13.803C97.2967 26.5139 94.3846 44.2247 81.6108 53.3611C68.837 62.4975 51.0386 59.5997 41.857 46.8888C32.6754 34.1778 35.5875 16.467 48.3614 7.33065C61.1352 -1.80574 78.9336 1.09203 88.1152 13.803Z" stroke="#C0080E" stroke-width="3" stroke-linecap="round"/>
<path d="M30.5 21C19.8225 21 11.1667 29.7217 11.1667 40.4805C11.1667 51.2393 19.8225 59.961 30.5 59.961C34.5868 59.961 38.3775 58.6833 41.5 56.5027M30.5 66.7792C15.151 66.7792 2.58712 78.7944 1.56689 93.9996C1.49294 95.1017 2.39543 96 3.5 96H57.5C58.6046 96 59.5071 95.1017 59.4331 93.9996C58.4129 78.7944 45.849 66.7792 30.5 66.7792Z" stroke="black" stroke-width="3" stroke-linecap="round"/>
</svg>
