<svg width="130" height="99" viewBox="0 0 130 99" fill="none" xmlns="http://www.w3.org/2000/svg">
<path d="M88.4666 13.5904C90.9398 16.1325 91.3665 17.8543 92.3182 21.3716C93.4356 25.5009 95.4442 29.3593 98.2141 32.6973L105.135 41.038L105.721 41.9791C107.613 45.0186 107.529 46.207 108.259 49.6403" stroke="#1C1C1E" stroke-width="3" stroke-linecap="round"/>
<path d="M95.5352 31.9687L64.4333 31.9687" stroke="#1C1C1E" stroke-width="3" stroke-linecap="round"/>
<path d="M98.3625 32.73L98.9801 27.4443C99.1413 26.0646 100.432 25.106 101.799 25.3498L110.931 26.9782C112.657 27.286 113.913 28.7867 113.913 30.5398V30.6451C113.913 32.3647 112.703 33.8466 111.018 34.19L101.107 36.2099" stroke="#1C1C1E" stroke-width="3" stroke-linecap="round"/>
<path d="M67.2607 49.7817L70.9708 49.2252C71.861 49.0916 72.5784 49.9451 72.2938 50.7991L71.5019 53.1746" stroke="#1C1C1E" stroke-width="3" stroke-linecap="round"/>
<path d="M80.8185 50.1973L76.4814 58.7816C76.172 59.3939 76.6836 60.1 77.3619 59.9967L97.7273 56.8961C98.9056 56.7167 99.7761 55.7036 99.7761 54.5118V47.5103C99.7761 46.0298 98.4547 44.8988 96.992 45.1273L85.2693 46.9591C83.3509 47.2588 81.6942 48.4642 80.8185 50.1973Z" stroke="#1C1C1E" stroke-width="3" stroke-linecap="round"/>
<path d="M53.8304 13.5904L32.2103 15.8904C25.2282 16.6332 19.4351 21.6206 17.6628 28.4146V28.4146C16.8084 31.6898 15.274 34.7485 13.1595 37.3916L7.88447 43.9854L7.35442 44.8688C4.93333 48.904 3.74557 53.5593 3.93748 58.2611L4.67932 76.4364C4.89037 81.607 9.14357 85.6902 14.3186 85.6902H92.9565C98.2846 85.6902 102.604 81.371 102.604 76.0429V71.3816" stroke="#1C1C1E" stroke-width="3" stroke-linecap="round"/>
<path d="M14.2461 37.6235L13.8262 33.8449C13.6713 32.4506 12.3636 31.4822 10.9847 31.7407L4.69303 32.9204C3.26458 33.1882 2.22946 34.4355 2.22946 35.8888V35.8888C2.22946 37.3129 3.2243 38.5435 4.6168 38.8419L12.1255 40.4509" stroke="#1C1C1E" stroke-width="3" stroke-linecap="round"/>
<path d="M26.9435 53.8294L29.7738 59.4901C30.0802 60.1028 29.5676 60.8061 28.8905 60.7019L14.1706 58.4373C12.994 58.2563 12.1255 57.2439 12.1255 56.0535V51.756C12.1255 50.274 13.4496 49.1425 14.9135 49.3737L22.4909 50.5701C24.4143 50.8738 26.0727 52.0877 26.9435 53.8294Z" stroke="#1C1C1E" stroke-width="3" stroke-linecap="round"/>
<path d="M14.9531 37.6235H46.6313" stroke="#1C1C1E" stroke-width="3" stroke-linecap="round"/>
<path d="M14.9531 73.6736L92.7078 73.6736" stroke="#1C1C1E" stroke-width="3" stroke-linecap="round"/>
<path d="M58.6015 53.8812V53.8812C55.2003 54.3503 51.7516 54.3618 48.3474 53.9154L34.0964 52.0464C33.1527 51.9226 32.4443 52.8896 32.8468 53.752L36.5845 61.7614C36.7594 62.1363 37.1143 62.3953 37.5246 62.4477L47.7194 63.7491C51.5332 64.236 55.4003 64.1118 59.175 63.3812L64.4331 62.3635" stroke="#1C1C1E" stroke-width="3" stroke-linecap="round"/>
<path d="M3.64331 84.2763V93.3821C3.64331 95.3801 5.26302 96.9998 7.26104 96.9998H13.4559C15.454 96.9998 17.0737 95.3801 17.0737 93.3821V89.2243" stroke="#1C1C1E" stroke-width="3" stroke-linecap="round"/>
<path d="M103.311 84.2763V93.3821C103.311 95.3801 101.691 96.9998 99.6928 96.9998H93.4979C91.4999 96.9998 89.8802 95.3801 89.8802 93.3821V89.2243" stroke="#1C1C1E" stroke-width="3" stroke-linecap="round"/>
<path d="M110.997 61.658L128.298 86.0499M115.255 15.5896C125.774 30.2246 122.438 50.6162 107.803 61.1356C93.1677 71.6549 72.776 68.3186 62.2567 53.6835C51.7373 39.0485 55.0737 18.6569 69.7087 8.13754C84.3437 -2.38181 104.735 0.95459 115.255 15.5896Z" stroke="#C0080E" stroke-width="3" stroke-linecap="round"/>
</svg>
