<svg width="109" height="87" viewBox="0 0 109 87" fill="none" xmlns="http://www.w3.org/2000/svg">
<path d="M26.5758 41.5342L29.4062 47.1949C29.7125 47.8076 29.1999 48.5109 28.5228 48.4067L13.8029 46.1421C12.6263 45.9611 11.7578 44.9488 11.7578 43.7583V39.4608C11.7578 37.9788 13.0819 36.8474 14.5458 37.0785L22.1232 38.2749C24.0466 38.5786 25.705 39.7925 26.5758 41.5342Z" stroke="#C0080E" stroke-width="3" stroke-linecap="round"/>
<path d="M79.4222 41.5342L76.5919 47.1949C76.2855 47.8076 76.7982 48.5109 77.4753 48.4067L92.1952 46.1421C93.3717 45.9611 94.2402 44.9488 94.2402 43.7583V39.4608C94.2402 37.9788 92.9161 36.8474 91.4523 37.0785L83.8748 38.2749C81.9514 38.5786 80.2931 39.7925 79.4222 41.5342Z" stroke="#C0080E" stroke-width="3" stroke-linecap="round"/>
<path d="M14.8623 25.2953H93.8623" stroke="#1C1C1E" stroke-width="3" stroke-linecap="round"/>
<path d="M14.8623 61.2953H92.8623" stroke="#C0080E" stroke-width="3" stroke-linecap="round"/>
<path d="M36.2178 49.4663L32.4801 41.4568C32.0776 40.5944 32.786 39.6275 33.7297 39.7512L45.74 41.3263C50.6324 41.968 55.5876 41.968 60.4801 41.3263L72.4904 39.7512C73.434 39.6275 74.1424 40.5944 73.74 41.4568L70.0022 49.4663C69.8273 49.8411 69.4725 50.1001 69.0622 50.1525L57.6912 51.6041C54.6494 51.9924 51.5706 51.9924 48.5288 51.6041L37.1579 50.1525C36.7476 50.1001 36.3927 49.8411 36.2178 49.4663Z" stroke="#C0080E" stroke-width="3" stroke-linecap="round"/>
<path d="M39.431 2.78811L31.8433 3.59531C24.8613 4.33808 19.0682 9.32546 17.2958 16.1195C16.4414 19.3947 14.9071 22.4534 12.7926 25.0965L7.51753 31.6903L6.98748 32.5737C4.56638 36.6089 3.37862 41.2642 3.57053 45.966L4.31238 64.1413C4.52343 69.3119 8.77662 73.3951 13.9516 73.3951H53.4635H92.9753C98.1503 73.3951 102.404 69.3119 102.615 64.1413L103.356 45.966C103.548 41.2642 102.361 36.6089 99.9395 32.5737L99.4094 31.6903L94.1344 25.0965C92.0199 22.4534 90.4855 19.3947 89.6311 16.1195C87.8588 9.32546 82.0657 4.33808 75.0836 3.59531L67.496 2.78811C58.1673 1.79569 48.7597 1.79569 39.431 2.78811Z" stroke="#1C1C1E" stroke-width="3" stroke-linecap="round"/>
<path d="M13.8789 25.3284L13.4591 21.5498C13.3041 20.1555 11.9964 19.1871 10.6175 19.4456L4.35103 20.6206C2.90798 20.8912 1.86228 22.1512 1.86228 23.6194V23.6194C1.86228 25.035 2.83596 26.2646 4.21383 26.5891L10.2045 28.0001" stroke="#1C1C1E" stroke-width="3" stroke-linecap="round"/>
<path d="M95.1201 25.3284L95.54 21.5498C95.6949 20.1555 97.0026 19.1871 98.3815 19.4456L104.648 20.6206C106.091 20.8912 107.137 22.1512 107.137 23.6194V23.6194C107.137 25.035 106.163 26.2646 104.785 26.5891L98.7946 28.0001" stroke="#1C1C1E" stroke-width="3" stroke-linecap="round"/>
<path d="M3.27637 71.9812V81.087C3.27637 83.085 4.89608 84.7047 6.89409 84.7047H13.089C15.087 84.7047 16.7067 83.085 16.7067 81.087V76.9292" stroke="#C0080E" stroke-width="3" stroke-linecap="round"/>
<path d="M104.293 71.9812V81.087C104.293 83.085 102.673 84.7047 100.675 84.7047H94.4803C92.4823 84.7047 90.8626 83.085 90.8626 81.087V76.9292" stroke="#C0080E" stroke-width="3" stroke-linecap="round"/>
</svg>
