<svg width="85" height="98" viewBox="0 0 85 98" fill="none" xmlns="http://www.w3.org/2000/svg">
<path d="M15.8437 96.5H76.5781C79.8918 96.5 82.5781 93.8137 82.5781 90.5V24.1025C82.5781 22.2509 81.7233 20.5031 80.2618 19.3664L67.5039 9.44357C66.4507 8.62442 65.1545 8.17969 63.8203 8.17969H15.8438C12.53 8.17969 9.84375 10.866 9.84375 14.1797V90.5C9.84375 93.8137 12.53 96.5 15.8437 96.5Z" stroke="#C0080E" stroke-width="3"/>
<path d="M64.7656 8.9903V21.2812C64.7656 21.8335 65.2133 22.2812 65.7656 22.2812H81.7675" stroke="#C0080E" stroke-width="3"/>
<path d="M9.8227 86.8516H6.42188C4.21274 86.8516 2.42188 85.0607 2.42188 82.8516V5.5C2.42188 3.29086 4.21274 1.5 6.42187 1.5H54.8281C57.0373 1.5 58.8281 3.29086 58.8281 5.5V8.68764" stroke="#1C1C1E" stroke-width="3"/>
<path d="M17.2656 55.6797H51.4063" stroke="#C0080E" stroke-width="3" stroke-linecap="round"/>
<path d="M17.2656 25.25H38.7891" stroke="#C0080E" stroke-width="3" stroke-linecap="round"/>
<path d="M58.8281 55.6797H72.9297" stroke="#C0080E" stroke-width="3" stroke-linecap="round"/>
<path d="M17.2656 65.3281H51.4063" stroke="#C0080E" stroke-width="3" stroke-linecap="round"/>
<path d="M17.2656 33.4141H42.5" stroke="#C0080E" stroke-width="3" stroke-linecap="round"/>
<path d="M17.2656 40.0938H42.5" stroke="#C0080E" stroke-width="3" stroke-linecap="round"/>
<path d="M58.8281 65.3281H72.9297" stroke="#C0080E" stroke-width="3" stroke-linecap="round"/>
<path d="M17.2656 74.9766H51.4063" stroke="#C0080E" stroke-width="3" stroke-linecap="round"/>
<path d="M58.8281 74.9766H72.9297" stroke="#C0080E" stroke-width="3" stroke-linecap="round"/>
<path d="M52.1484 46.0312H72.9297" stroke="#C0080E" stroke-width="3" stroke-linecap="round"/>
</svg>
